# xmcd
#
# Track frame offsets: 
#        150
#        18175
#        39830
#        58375
#        72700
#        94732
#        113847
#        128417
#        150297
#        159387
#        177197
#
# Disc length: 2637 seconds
#
# Revision: 15
# Processed by: cddbd v1.5.2PL0 Copyright (c) Steve Scherf et al.
# Submitted via: ExactAudioCopy v1.3
#
DISCID=820a4b0b
DTITLE=Radiohead - Amnesiac
DYEAR=2001
DGENRE=Rock
TTITLE0=Packt Like Sardines In A Crushd Tin Box
TTITLE1=Pyramid Song
TTITLE2=Pulk - Pull Revolving Doors
TTITLE3=You And Whose Army ?
TTITLE4=I Might Be Wrong
TTITLE5=Knives Out
TTITLE6=Morning Bell - Amnesiac
TTITLE7=Dollars And Cents
TTITLE8=Hunting Bears
TTITLE9=Like Spinning Plates
TTITLE10=Life In A Glasshouse
EXTD=
EXTT0=
EXTT1=
EXTT2=
EXTT3=
EXTT4=
EXTT5=
EXTT6=
EXTT7=
EXTT8=
EXTT9=
EXTT10=
PLAYORDER=
